<?xml version="1.0" encoding="UTF-8" standalone="no"?>
<!-- Created with Inkscape (http://www.inkscape.org/) -->

<svg
   xmlns:dc="http://purl.org/dc/elements/1.1/"
   xmlns:cc="http://creativecommons.org/ns#"
   xmlns:rdf="http://www.w3.org/1999/02/22-rdf-syntax-ns#"
   xmlns:svg="http://www.w3.org/2000/svg"
   xmlns="http://www.w3.org/2000/svg"
   xmlns:sodipodi="http://sodipodi.sourceforge.net/DTD/sodipodi-0.dtd"
   xmlns:inkscape="http://www.inkscape.org/namespaces/inkscape"
   version="1.1"
   width="196.04907"
   height="49.799999"
   id="svg3016"
   sodipodi:docname="logo-fdn-checked.svg"
   inkscape:version="0.92.2 (5c3e80d, 2017-08-06)">
  <sodipodi:namedview
     pagecolor="#ffffff"
     bordercolor="#666666"
     borderopacity="1"
     objecttolerance="10"
     gridtolerance="10"
     guidetolerance="10"
     inkscape:pageopacity="0"
     inkscape:pageshadow="2"
     inkscape:window-width="1280"
     inkscape:window-height="759"
     id="namedview18"
     showgrid="false"
     inkscape:zoom="2.2709986"
     inkscape:cx="74.988932"
     inkscape:cy="-11.900659"
     inkscape:window-x="0"
     inkscape:window-y="41"
     inkscape:window-maximized="0"
     inkscape:current-layer="svg3016"
     fit-margin-top="0"
     fit-margin-left="0"
     fit-margin-right="0"
     fit-margin-bottom="0" />
  <defs
     id="defs3018">
    <linearGradient
       id="SVGID_1_"
       x1="306"
       gradientUnits="userSpaceOnUse"
       y1="-333"
       gradientTransform="matrix(1,0,0,-1,-285,-332)"
       x2="306"
       y2="-373">
      <stop
         stop-color="#5DF24F"
         offset="0"
         id="stop542" />
      <stop
         stop-color="#2A9C06"
         offset="1"
         id="stop544" />
    </linearGradient>
  </defs>
  <metadata
     id="metadata3021">
    <rdf:RDF>
      <cc:Work
         rdf:about="">
        <dc:format>image/svg+xml</dc:format>
        <dc:type
           rdf:resource="http://purl.org/dc/dcmitype/StillImage" />
        <dc:title></dc:title>
      </cc:Work>
    </rdf:RDF>
  </metadata>
  <g
     transform="translate(-325.78571,-213.17647)"
     id="layer1">
    <g
       transform="translate(302.28571,197.67647)"
       id="g35"
       style="fill:#bac2e4;stroke:#4b5269;stroke-linejoin:round">
      <path
         d="M 24,16 V 28.8 H 57.6 V 16 Z m 0,18.4 V 64.8 H 38.4 V 47.2 H 57.6 V 34.4 Z"
         id="path37"
         inkscape:connector-curvature="0" />
      <path
         d="m 68,16 h 17.6 c 33.6,0 33.6,48.8 0,48.8 H 68 V 34.4 h 14.4 v 18.4 c 17.6,0 17.6,-24 0,-24 H 68 Z"
         id="path39"
         inkscape:connector-curvature="0" />
      <path
         d="M 120.8,64.8 V 16 h 24 c 10.4,0 15.2,7.2 15.2,14.4 V 64.8 H 145.6 V 32 c 0,-1.6 -1.6,-3.2 -3.2,-3.2 h -7.2 v 36 z"
         id="path41"
         inkscape:connector-curvature="0" />
    </g>
  </g>
  <g
     transform="matrix(1.245,0,0,1.245,145.00407,-1.245)"
     id="Layer_2">
    <circle
       style="fill:none"
       cy="21"
       cx="21"
       r="20"
       id="circle540" />
    <linearGradient
       id="linearGradient575"
       x1="306"
       gradientUnits="userSpaceOnUse"
       y1="-333"
       gradientTransform="matrix(1,0,0,-1,-285,-332)"
       x2="306"
       y2="-373">
      <stop
         stop-color="#5DF24F"
         offset="0"
         id="stop571" />
      <stop
         stop-color="#2A9C06"
         offset="1"
         id="stop573" />
    </linearGradient>
    <path
       style="fill:url(#SVGID_1_)"
       inkscape:connector-curvature="0"
       d="m 21,5 c 9.378,0 16,6.633 16,16 0,9.366 -6.622,16 -16,16 C 11.623,37 5,30.366 5,21 5,11.633 11.623,5 21,5 M 21,1 C 9.954,1 1,9.954 1,21 1,32.045 9.954,41 21,41 32.045,41 41,32.045 41,21 41,9.954 32.045,1 21,1 Z"
       id="path547" />
    <path
       style="fill:#018700"
       inkscape:connector-curvature="0"
       d="m 12.593,22.904 c 0,0 0.845,-0.904 2.032,-1.904 1.187,-1 2.875,-2.563 2.875,-2.563 l 4.688,7.063 c 0,0 2.83,-6.455 6.563,-11.25 3.733,-4.795 5.625,-6.688 5.625,-6.688 0,0 0.281,3.031 0.345,5.406 0.063,2.375 -0.345,5.365 -0.345,5.365 0,0 -3.088,1.191 -6.125,5.083 -3.897,4.994 -5.688,8.708 -5.688,8.708 0,0 -1.563,-1.499 -4.313,-4.374 -2.75,-2.875 -5.657,-4.846 -5.657,-4.846 z"
       id="path549" />
  </g>
</svg>
